<?xml version="1.0" encoding="UTF-8"?>
<!DOCTYPE svg PUBLIC "-//W3C//DTD SVG 1.1//EN" "http://www.w3.org/Graphics/SVG/1.1/DTD/svg11.dtd">
<!-- Creator: CorelDRAW 2020 (64 Bit) -->
<svg xmlns="http://www.w3.org/2000/svg" xml:space="preserve" width="372.445mm" height="370.527mm" version="1.1" style="shape-rendering:geometricPrecision; text-rendering:geometricPrecision; image-rendering:optimizeQuality; fill-rule:evenodd; clip-rule:evenodd"
viewBox="0 0 19214.86 19115.93"
 xmlns:xlink="http://www.w3.org/1999/xlink"
 xmlns:xodm="http://www.corel.com/coreldraw/odm/2003">
 <defs>
  <style type="text/css">
   <![CDATA[
    .fil0 {fill:#FEFEFE}
   ]]>
  </style>
 </defs>
 <g id="Camada_x0020_1">
  <metadata id="CorelCorpID_0Corel-Layer"/>
  <path class="fil0" d="M8170.85 9629.82c-17.91,-1227.98 -110.88,-2788.09 407.34,-3887.17 167.53,-355.31 310.41,-573.32 571.91,-848.4 1097.39,-1154.39 3128.98,-1034.67 4659.28,-830.29l0.28 2202.94c-518.54,22.4 -1060.91,-8.58 -1583.22,2.63 -1588.22,34.1 -1303.68,2207.7 -1320.09,3359.9l2878.22 1.42 -390.4 2525.42 -2487.22 9.13 4.01 6950.52c391.26,0.5 1457.98,-301.18 1848.49,-438.41 572.85,-201.32 1100.96,-439.68 1591.44,-720.02 951.11,-543.64 1857.98,-1278.74 2535.87,-2087.4 93.42,-111.44 180.27,-206.7 265.35,-316.59 1455.78,-1880.38 2197.07,-4094.56 2042.65,-6580 -306.18,-4927.99 -4391.5,-8909.98 -9497.44,-8972.83 -2034.17,-25.04 -4153.58,655.05 -5706.94,1808.74 -349.1,259.28 -517.29,419.34 -806.59,649.62l-719.32 718.01c-641.01,787.22 -836.84,959.38 -1410.66,2047.82 -1227.34,2328.07 -1369.65,5146.6 -494.67,7626.28 312.25,884.91 686.9,1553.98 1190.54,2285.3 349.14,506.99 1161.13,1429.61 1654.96,1802.82 218.67,165.26 408.07,332.69 656.33,508.51 218.89,155.02 451.05,307.66 697.44,449.33 970.27,557.88 2118.76,1021.01 3411.63,1202.04l1.57 -6942.5 -2378.99 -7.56 0.02 -2519.03 2378.19 -0.22z"/>
 </g>
</svg>
