<?xml version="1.0" encoding="UTF-8"?>
<!DOCTYPE svg PUBLIC "-//W3C//DTD SVG 1.1//EN" "http://www.w3.org/Graphics/SVG/1.1/DTD/svg11.dtd">
<!-- Creator: CorelDRAW 2020 (64 Bit) -->
<svg xmlns="http://www.w3.org/2000/svg" xml:space="preserve" width="190.7mm" height="190.657mm" version="1.1" style="shape-rendering:geometricPrecision; text-rendering:geometricPrecision; image-rendering:optimizeQuality; fill-rule:evenodd; clip-rule:evenodd"
viewBox="0 0 19070.88 19066.59"
 xmlns:xlink="http://www.w3.org/1999/xlink"
 xmlns:xodm="http://www.corel.com/coreldraw/odm/2003">
 <defs>
  <style type="text/css">
   <![CDATA[
    .fil0 {fill:#FEFEFE}
   ]]>
  </style>
 </defs>
 <g id="Camada_x0020_1">
  <metadata id="CorelCorpID_0Corel-Layer"/>
  <path class="fil0" d="M17311.57 12848.56c-45.64,1230.78 -171.01,2291.07 -795.23,3100.89 -528.15,685.19 -1376.89,1163.26 -2610.47,1296.6 -1360.31,147.04 -6172.08,117.1 -7685.76,62.54 -1235.66,-44.53 -2288.22,-172.54 -3098.83,-798.2 -693.16,-535 -1163.47,-1369.26 -1296.26,-2611.21 -142.74,-1335.03 -121.99,-6233.88 -61.95,-7704.25 51.53,-1262.2 145.67,-2228.35 795.74,-3074.42 527.08,-686 1381.97,-1165.62 2609.49,-1297.7 1195.52,-128.64 2584.14,-95.55 3802.25,-95.41 1288.66,0.14 2600.07,-18.05 3884.24,32.71 1261.52,49.86 2253.65,152.9 3093,794.97 686.34,525.03 1166.42,1375.66 1300.55,2606.22 146.89,1347.62 118.86,6187.44 63.24,7687.25zm-17280.53 -317.51c52.47,1577.87 123.15,2707.93 808.24,3932.84 243.04,434.54 717.26,1007.77 1099.36,1299.67 491.09,375.17 813.52,590.93 1511.57,852.34 1206.36,451.77 2945.5,434.22 4320.82,440.02 1578.83,6.66 3187.72,26.88 4764.11,-15.6 1525.56,-41.1 2744.22,-134.25 3933.07,-810.9 2564.06,-1459.37 2579.19,-4204.15 2590.42,-6933.15 6.46,-1570.61 31.03,-3180.43 -15.59,-4747.7 -46.39,-1559.2 -134.61,-2750.06 -810.6,-3949.6 -500.93,-888.92 -1464.88,-1760.27 -2614.91,-2146.88 -1340.14,-450.52 -2830.82,-432.12 -4318.56,-440.08 -1575.67,-8.42 -3188.71,-29.01 -4761.55,16.45 -1535.12,44.37 -2745.82,143.38 -3931.52,810.58 -913.85,514.22 -1739.1,1440.49 -2148.58,2612.75 -457.47,1309.65 -434.79,2858.8 -442.61,4316.54 -8.42,1570.75 -35.75,3196.42 16.33,4762.72z"/>
  <path class="fil0" d="M12694.93 9849.81c-173.77,1650.93 -1626.48,3036.26 -3494.66,2840.71 -1637.63,-171.41 -3014.42,-1645.03 -2818.92,-3494.46 173.17,-1638.17 1638.8,-3002.77 3490.64,-2817.87 1619.77,161.72 3015.57,1641.6 2822.94,3471.62zm-3733.97 -5171.42c-2496.06,300.54 -4624.45,2549.72 -4280.11,5443.49 296.37,2490.62 2587.9,4634.32 5468.91,4265.95 2476.67,-316.67 4570.23,-2553.58 4247.55,-5409.42 -283.53,-2509.28 -2567.91,-4645.39 -5436.35,-4300.02z"/>
  <path class="fil0" d="M14359.37 3339.64c-1462.1,331.06 -955.14,2579.52 525.16,2223.39 1470.14,-353.68 951.66,-2557.8 -525.16,-2223.39z"/>
 </g>
</svg>
