<?xml version="1.0" encoding="UTF-8"?>
<!DOCTYPE svg PUBLIC "-//W3C//DTD SVG 1.1//EN" "http://www.w3.org/Graphics/SVG/1.1/DTD/svg11.dtd">
<!-- Creator: CorelDRAW 2020 (64 Bit) -->
<svg xmlns="http://www.w3.org/2000/svg" xml:space="preserve" width="221.91mm" height="155.214mm" version="1.1" style="shape-rendering:geometricPrecision; text-rendering:geometricPrecision; image-rendering:optimizeQuality; fill-rule:evenodd; clip-rule:evenodd"
viewBox="0 0 22150.08 15492.8"
 xmlns:xlink="http://www.w3.org/1999/xlink"
 xmlns:xodm="http://www.corel.com/coreldraw/odm/2003">
 <defs>
  <style type="text/css">
   <![CDATA[
    .fil0 {fill:#FEFEFE}
   ]]>
  </style>
 </defs>
 <g id="Camada_x0020_1">
  <metadata id="CorelCorpID_0Corel-Layer"/>
  <path class="fil0" d="M8935.6 11049.77l-8.68 -6608.58 5761.75 3291.7c-38.2,46.19 20.58,-2.91 -72.13,65.03l-5680.94 3251.85zm13199.01 -2512c47.37,-1454.68 -13.48,-3049.86 -190.82,-4476.26 -204.09,-1641.59 -391.34,-2498.08 -1448.17,-3233.74 -882.26,-614.14 -2775.23,-631.01 -4024.46,-693.98 -1519.75,-76.61 -3040.9,-110.17 -4565.78,-123.85 -2844.06,-25.52 -6263.95,-33.56 -9017.34,388.84 -1288.75,197.71 -2200.8,933.04 -2481.13,2242.72 -277.49,1296.44 -360.4,2902.22 -394.33,4276.42 -36.4,1474.55 1.21,3082.21 179.36,4531.18 196.84,1600.93 398.33,2535.32 1454.38,3227.85 901.09,590.92 2793.83,599.66 4025.97,674.89 3196.87,195.17 10587.05,248.64 13612.72,-244.88 1316.17,-214.68 2189.36,-1026.23 2432.71,-2281.77 272.41,-1405.48 369.11,-2820.41 416.89,-4287.43z"/>
 </g>
</svg>
