<?xml version="1.0" encoding="UTF-8"?>
<!DOCTYPE svg PUBLIC "-//W3C//DTD SVG 1.1//EN" "http://www.w3.org/Graphics/SVG/1.1/DTD/svg11.dtd">
<!-- Creator: CorelDRAW 2020 (64 Bit) -->
<svg xmlns="http://www.w3.org/2000/svg" xml:space="preserve" width="96.7514mm" height="97.2381mm" version="1.1" style="shape-rendering:geometricPrecision; text-rendering:geometricPrecision; image-rendering:optimizeQuality; fill-rule:evenodd; clip-rule:evenodd"
viewBox="0 0 9688.68 9737.42"
 xmlns:xlink="http://www.w3.org/1999/xlink"
 xmlns:xodm="http://www.corel.com/coreldraw/odm/2003">
 <defs>
  <style type="text/css">
   <![CDATA[
    .fil0 {fill:#FEFEFE}
   ]]>
  </style>
 </defs>
 <g id="Camada_x0020_1">
  <metadata id="CorelCorpID_0Corel-Layer"/>
  <path class="fil0" d="M5418.17 4042.73l-84.81 67.42 1.77 -874.23 -1907.35 12.23 -62.33 6454.12 2027.89 -1.75c23.51,-853.27 -49.2,-3316.76 93.71,-3953.25 308.65,-1374.61 2206.52,-1115.54 2130.68,127.52 18.98,28.93 22.55,14.06 37.38,74.2 75.77,307.43 -42.5,3167.95 -0.19,3731.13l1977.6 0.39 11.52 -872.12c0.37,-132.03 -14.59,-192.14 36.75,-303.32 -159.25,-798.01 369.1,-3722 -568.19,-4748.71 -450.69,-493.68 -1030.48,-736.77 -1979.76,-691.61 -770.92,36.69 -1508.53,513.89 -1714.69,977.98z"/>
  <path class="fil0" d="M93.31 6795.48c57.61,257.89 15.09,1122.29 14.46,1447.64 -0.92,483.16 -18.99,974.79 -10.41,1456.11l2021.09 3.14 42.9 -6466.62 -1995.2 9.95c-44.2,604.76 -30.9,1975.34 -36.06,2701.13l-36.78 848.63z"/>
  <path class="fil0" d="M895.08 45.78c-1572.13,468.74 -872.83,2630.32 554.03,2264.56 527.6,-135.25 1039.39,-699.54 855.57,-1430.35 -129.41,-514.47 -719.1,-1040.08 -1409.6,-834.22z"/>
  <path class="fil0" d="M9680.81 8505.06c-51.34,111.19 -36.38,171.29 -36.75,303.32l-11.52 872.12 -1977.6 -0.39c-42.31,-563.19 75.96,-3423.7 0.19,-3731.13 -14.83,-60.14 -18.41,-45.27 -37.38,-74.2l6.77 1909.09c-6.19,374.39 -72.4,1635.46 -2.29,1907.67 175.24,74.51 1743.42,38.24 2048.2,28.21l10.38 -1214.68z"/>
  <path class="fil0" d="M93.31 6795.48l36.78 -848.63c5.16,-725.79 -8.14,-2096.38 36.06,-2701.13l1995.2 -9.95c-88.58,-114.48 -867.58,-53.5 -997.8,-53.5 -240.02,-0.01 -842.83,-23.9 -1041.36,27.53 -26.94,382.8 -74.26,3377.93 -28.88,3585.69z"/>
  <path class="fil0" d="M5418.17 4042.73c-61.63,-47.52 -21.55,12.59 -37.24,-75.96l4.9 -316.18c5.33,-158.37 24.49,-299.74 -26.83,-447.31l-1829.69 -11.03c-145.63,29.24 -47.96,-5.36 -101.52,55.89l1907.35 -12.23 -1.77 874.23 84.81 -67.42z"/>
 </g>
</svg>
